<svg width="12" height="19" viewBox="0 0 12 19" fill="none" xmlns="http://www.w3.org/2000/svg">
<path d="M11.5711 0.513774C11.5711 0.379106 11.5164 0.249952 11.419 0.154727C11.3216 0.0595018 11.1894 0.0060047 11.0517 0.0060047H8.45427C7.14634 -0.0576789 5.8658 0.38723 4.89242 1.24352C3.91904 2.09981 3.33196 3.29787 3.25946 4.57593V7.31789H0.662059C0.524284 7.31789 0.392152 7.37139 0.294731 7.46661C0.197309 7.56184 0.142578 7.69099 0.142578 7.82566V10.4661C0.142578 10.6007 0.197309 10.7299 0.294731 10.8251C0.392152 10.9203 0.524284 10.9738 0.662059 10.9738H3.25946V17.7779C3.25946 17.9126 3.31419 18.0418 3.41161 18.137C3.50903 18.2322 3.64117 18.2857 3.77894 18.2857H6.89582C7.0336 18.2857 7.16573 18.2322 7.26315 18.137C7.36058 18.0418 7.41531 17.9126 7.41531 17.7779V10.9738H10.1374C10.2529 10.9755 10.3657 10.9394 10.4579 10.8713C10.5501 10.8033 10.6164 10.7071 10.6465 10.5981L11.3945 7.95768C11.4152 7.88265 11.418 7.80399 11.4026 7.72775C11.3873 7.65151 11.3543 7.57972 11.3061 7.51792C11.2579 7.45612 11.1959 7.40594 11.1248 7.37126C11.0536 7.33659 10.9753 7.31832 10.8958 7.31789H7.41531V4.57593C7.44115 4.32456 7.56192 4.09163 7.75403 3.92263C7.94615 3.75362 8.19581 3.66068 8.45427 3.66195H11.0517C11.1894 3.66195 11.3216 3.60845 11.419 3.51322C11.5164 3.418 11.5711 3.28885 11.5711 3.15418V0.513774Z" fill="white"/>
</svg>
