<svg width="19" height="18" viewBox="0 0 19 18" fill="none" xmlns="http://www.w3.org/2000/svg">
<path d="M18.0846 5.31279C18.0745 4.557 17.9328 3.80874 17.6658 3.10145C17.4342 2.50486 17.0806 1.96305 16.6274 1.51064C16.1743 1.05823 15.6315 0.705162 15.034 0.474C14.3346 0.21191 13.5958 0.0701931 12.8489 0.0548842C11.8874 0.0119748 11.5825 0 9.14158 0C6.70066 0 6.3878 6.6914e-08 5.43323 0.0548842C4.68672 0.0703057 3.94823 0.212021 3.2492 0.474C2.65152 0.705001 2.10873 1.05801 1.65554 1.51044C1.20235 1.96288 0.848753 2.50477 0.617367 3.10145C0.354315 3.79911 0.21267 4.53653 0.198553 5.28185C0.155572 6.24282 0.142578 6.54718 0.142578 8.98404C0.142578 11.4209 0.142578 11.7322 0.198553 12.6862C0.213547 13.4326 0.354484 14.1691 0.617367 14.8686C0.849142 15.4651 1.203 16.0068 1.65634 16.459C2.10968 16.9113 2.65253 17.2641 3.2502 17.4951C3.94732 17.7677 4.68593 17.9196 5.43423 17.9441C6.3968 17.987 6.70166 18 9.14258 18C11.5835 18 11.8964 18 12.8509 17.9441C13.5978 17.9294 14.3366 17.7881 15.036 17.526C15.6334 17.2946 16.176 16.9414 16.6291 16.489C17.0822 16.0367 17.436 15.495 17.6678 14.8985C17.9307 14.2 18.0716 13.4636 18.0866 12.7162C18.1296 11.7562 18.1426 11.4518 18.1426 9.01397C18.1406 6.57712 18.1406 6.26777 18.0846 5.31279ZM9.13558 13.5923C6.58272 13.5923 4.51463 11.5277 4.51463 8.97905C4.51463 6.43043 6.58272 4.36578 9.13558 4.36578C10.3611 4.36578 11.5365 4.85182 12.4031 5.71698C13.2697 6.58213 13.7565 7.75553 13.7565 8.97905C13.7565 10.2026 13.2697 11.376 12.4031 12.2411C11.5365 13.1063 10.3611 13.5923 9.13558 13.5923ZM13.9404 5.27087C13.3437 5.27087 12.8629 4.78989 12.8629 4.19514C12.8629 4.05394 12.8908 3.91412 12.9449 3.78367C12.999 3.65322 13.0784 3.53469 13.1784 3.43484C13.2784 3.335 13.3971 3.2558 13.5278 3.20176C13.6585 3.14773 13.7985 3.11991 13.9399 3.11991C14.0814 3.11991 14.2214 3.14773 14.3521 3.20176C14.4828 3.2558 14.6015 3.335 14.7015 3.43484C14.8015 3.53469 14.8809 3.65322 14.935 3.78367C14.9891 3.91412 15.017 4.05394 15.017 4.19514C15.017 4.78989 14.5352 5.27087 13.9404 5.27087Z" fill="white"/>
<path d="M9.13558 11.9757C10.7934 11.9757 12.1372 10.6341 12.1372 8.97905C12.1372 7.32403 10.7934 5.98237 9.13558 5.98237C7.47781 5.98237 6.13392 7.32403 6.13392 8.97905C6.13392 10.6341 7.47781 11.9757 9.13558 11.9757Z" fill="white"/>
</svg>
