<svg width="12" height="19" viewBox="0 0 12 19" fill="none" xmlns="http://www.w3.org/2000/svg">
<path d="M11.4286 0.513775C11.4286 0.379106 11.3738 0.249952 11.2764 0.154727C11.179 0.0595018 11.0469 0.0060047 10.9091 0.0060047H8.31169C7.00376 -0.0576789 5.72322 0.38723 4.74984 1.24352C3.77646 2.09981 3.18939 3.29787 3.11688 4.57593V7.31789H0.519481C0.381706 7.31789 0.249574 7.37139 0.152152 7.46661C0.0547309 7.56184 0 7.69099 0 7.82566V10.4661C0 10.6007 0.0547309 10.7299 0.152152 10.8251C0.249574 10.9203 0.381706 10.9738 0.519481 10.9738H3.11688V17.7779C3.11688 17.9126 3.17161 18.0418 3.26904 18.137C3.36646 18.2322 3.49859 18.2857 3.63636 18.2857H6.75325C6.89102 18.2857 7.02315 18.2322 7.12058 18.137C7.218 18.0418 7.27273 17.9126 7.27273 17.7779V10.9738H9.99481C10.1103 10.9755 10.2231 10.9394 10.3153 10.8713C10.4075 10.8033 10.4739 10.7071 10.5039 10.5981L11.2519 7.95768C11.2726 7.88265 11.2754 7.80399 11.2601 7.72775C11.2447 7.65151 11.2117 7.57972 11.1635 7.51792C11.1154 7.45612 11.0533 7.40594 10.9822 7.37126C10.9111 7.33659 10.8327 7.31832 10.7532 7.31789H7.27273V4.57593C7.29857 4.32456 7.41934 4.09163 7.61145 3.92263C7.80357 3.75362 8.05323 3.66068 8.31169 3.66195H10.9091C11.0469 3.66195 11.179 3.60845 11.2764 3.51322C11.3738 3.418 11.4286 3.28885 11.4286 3.15418V0.513775Z" fill="black"/>
</svg>
